<svg width="29" height="27" viewBox="0 0 29 27" fill="none" xmlns="http://www.w3.org/2000/svg">
<mask id="mask0_101_59" style="mask-type:luminance" maskUnits="userSpaceOnUse" x="0" y="0" width="29" height="27">
<path d="M29 0H0V26.48H29V0Z" fill="white"/>
</mask>
<g mask="url(#mask0_101_59)">
<path d="M2.80575 6.7123C2.67992 6.58923 2.4759 6.58923 2.35007 6.7123L0.299455 8.71847C0.173619 8.8416 0.173619 9.04121 0.299455 9.16428C0.42529 9.28741 0.62931 9.28741 0.755144 9.16428L2.57791 7.38104L4.40068 9.16428C4.52651 9.28741 4.73053 9.28741 4.85636 9.16428C4.9822 9.04121 4.9822 8.8416 4.85636 8.71847L2.80575 6.7123ZM2.90013 24.5886V6.93523H2.25569V24.5886H2.90013Z" fill="#0BBB62"/>
<path d="M20.8504 24.8115C20.9762 24.6884 20.9762 24.4888 20.8504 24.3657L18.7998 22.3596C18.674 22.2364 18.4699 22.2364 18.3441 22.3596C18.2183 22.4826 18.2183 22.6822 18.3441 22.8054L20.1669 24.5886L18.3441 26.3718C18.2183 26.495 18.2183 26.6946 18.3441 26.8177C18.4699 26.9408 18.674 26.9408 18.7998 26.8177L20.8504 24.8115ZM2.57812 24.9038H20.6226V24.2734H2.57812V24.9038Z" fill="#0BBB62"/>
<path d="M4.51172 5.35913H21.9117" stroke="#0BBB62"/>
<path d="M22.2334 22.6972V5.04382" stroke="#0BBB62"/>
<path d="M22.327 16.6339L12.6494 24.5753" stroke="#0BBB62"/>
<path d="M22.3268 11.5902L6.57617 24.5152" stroke="#0BBB62"/>
<path d="M15.2378 5.2854L2.49902 15.7388" stroke="#0BBB62"/>
<path d="M22.3262 5.91589L12.4512 14.0193L2.57617 22.1227" stroke="#0BBB62"/>
</g>
</svg>
