<svg width="51" height="50" viewBox="0 0 51 50" fill="none" xmlns="http://www.w3.org/2000/svg">
<mask id="mask0_135_123" style="mask-type:luminance" maskUnits="userSpaceOnUse" x="0" y="0" width="51" height="50">
<path d="M51 0H0V49.48H51V0Z" fill="white"/>
</mask>
<g mask="url(#mask0_135_123)">
<path d="M4.93395 12.5425C4.71266 12.3126 4.35387 12.3126 4.13257 12.5425L0.526324 16.2912C0.305027 16.5213 0.305027 16.8943 0.526324 17.1243C0.747621 17.3543 1.10642 17.3543 1.32771 17.1243L4.53326 13.7921L7.73882 17.1243C7.96011 17.3543 8.3189 17.3543 8.5402 17.1243C8.7615 16.8943 8.7615 16.5213 8.5402 16.2912L4.93395 12.5425ZM5.09993 45.9458V12.9591H3.9666V45.9458H5.09993Z" fill="#0BBB62"/>
<path d="M36.6683 46.3624C36.8895 46.1324 36.8895 45.7594 36.6683 45.5293L33.062 41.7807C32.8407 41.5506 32.4818 41.5506 32.2606 41.7807C32.0393 42.0107 32.0393 42.3837 32.2606 42.6137L35.4661 45.9459L32.2606 49.278C32.0393 49.5081 32.0393 49.8811 32.2606 50.111C32.4818 50.3411 32.8407 50.3411 33.062 50.111L36.6683 46.3624ZM4.53418 46.5349H36.2675V45.3568H4.53418V46.5349Z" fill="#0BBB62"/>
<path d="M7.93359 10.0139H38.5336" stroke="#0BBB62"/>
<path d="M39.1006 42.4116V9.42493" stroke="#0BBB62"/>
<path d="M39.2643 31.0819L22.2451 45.921" stroke="#0BBB62"/>
<path d="M39.2639 21.6572L11.5645 45.8085" stroke="#0BBB62"/>
<path d="M26.7972 9.87628L4.39453 29.4094" stroke="#0BBB62"/>
<path d="M39.2641 11.0544L21.8977 26.1963L4.53125 41.3382" stroke="#0BBB62"/>
</g>
</svg>
