<svg xmlns="http://www.w3.org/2000/svg" xmlns:xlink="http://www.w3.org/1999/xlink" viewBox="0,0,256,256" width="50px" height="50px"><g fill="#bababa" fill-rule="nonzero" stroke="none" stroke-width="1" stroke-linecap="butt" stroke-linejoin="miter" stroke-miterlimit="10" stroke-dasharray="" stroke-dashoffset="0" font-family="none" font-weight="none" font-size="none" text-anchor="none" style="mix-blend-mode: normal"><g transform="scale(5.12,5.12)"><path d="M25,8c-9.389,0 -17,7.611 -17,17c0,9.389 7.611,17 17,17c9.389,0 17,-7.611 17,-17c0,-9.389 -7.611,-17 -17,-17zM25,9c8.837,0 16,7.163 16,16c0,8.837 -7.163,16 -16,16c-8.837,0 -16,-7.163 -16,-16c0,-8.837 7.163,-16 16,-16zM18.99023,18.49023c-0.128,0 -0.25602,0.04898 -0.35352,0.14648c-0.195,0.195 -0.195,0.51203 0,0.70703l5.65625,5.65625l-5.65625,5.65625c-0.195,0.195 -0.195,0.51203 0,0.70703c0.195,0.195 0.51203,0.195 0.70703,0l5.65625,-5.65625l5.65625,5.65625c0.195,0.195 0.51203,0.195 0.70703,0c0.195,-0.195 0.195,-0.51203 0,-0.70703l-5.65625,-5.65625l5.65625,-5.65625c0.195,-0.195 0.195,-0.51203 0,-0.70703c-0.195,-0.195 -0.51203,-0.195 -0.70703,0l-5.65625,5.65625l-5.65625,-5.65625c-0.0975,-0.0975 -0.22552,-0.14648 -0.35352,-0.14648z"></path></g></g></svg>