<svg width="27" height="21" viewBox="0 0 27 21" fill="none" xmlns="http://www.w3.org/2000/svg">
<g clip-path="url(#clip0_101_92)">
<rect x="5.5" y="9.5" width="15" height="12" fill="#0BBB62" stroke="#0BBB62" stroke-dasharray="2 2"/>
<path d="M13 2L23.3923 9.5H2.6077L13 2Z" fill="#0BBB62" stroke="#0BBB62"/>
<path d="M9.05398 19V18.1051L12.4148 14.4261C12.8092 13.9953 13.134 13.6207 13.3892 13.3026C13.6444 12.9811 13.8333 12.6795 13.956 12.3977C14.0819 12.1127 14.1449 11.8144 14.1449 11.5028C14.1449 11.1449 14.0587 10.835 13.8864 10.5732C13.7173 10.3113 13.4853 10.1091 13.1903 9.96662C12.8954 9.8241 12.5639 9.75284 12.196 9.75284C11.8049 9.75284 11.4635 9.83404 11.1719 9.99645C10.8835 10.1555 10.6598 10.3793 10.5007 10.6676C10.3449 10.956 10.267 11.294 10.267 11.6818H9.09375C9.09375 11.0852 9.2313 10.5616 9.50639 10.1108C9.78149 9.66004 10.156 9.30871 10.63 9.05682C11.1072 8.80492 11.6425 8.67898 12.2358 8.67898C12.8324 8.67898 13.361 8.80492 13.8217 9.05682C14.2824 9.30871 14.6437 9.64844 14.9055 10.076C15.1674 10.5036 15.2983 10.9792 15.2983 11.5028C15.2983 11.8774 15.2304 12.2436 15.0945 12.6016C14.9619 12.9562 14.7299 13.3523 14.3984 13.7898C14.0703 14.224 13.6146 14.7543 13.0312 15.3807L10.7443 17.8267V17.9062H15.4773V19H9.05398Z" fill="white"/>
</g>
<defs>
<clipPath id="clip0_101_92">
<rect width="27" height="23" fill="white" transform="translate(0 -2)"/>
</clipPath>
</defs>
</svg>
